<svg width="277" height="48" viewBox="0 0 277 48" fill="none" xmlns="http://www.w3.org/2000/svg">
<path d="M73.8872 11.8344C66.7808 11.8344 61.8286 16.6051 61.8286 23.9397V42.2792H67.2842V31.7777C68.8881 34.3007 71.5925 35.6763 74.853 35.6763C80.3496 35.6763 86.1272 31.7309 86.1272 23.9865C86.1272 16.7865 81.0872 11.8344 73.8872 11.8344ZM73.9281 30.5895C69.9418 30.5895 67.2842 27.7446 67.2842 23.7582C67.2842 19.7719 69.9418 16.927 73.9281 16.927C77.9145 16.927 80.6247 19.7661 80.6247 23.7582C80.6247 27.7504 77.9145 30.5895 73.9281 30.5895Z" fill="#6F6AF8"/>
<path d="M101.259 11.8344C94.1059 11.8344 89.0601 16.8802 89.0601 23.7582C89.0601 30.6363 94.1001 35.6821 101.259 35.6821C108.418 35.6821 113.458 30.6363 113.458 23.7582C113.458 16.8802 108.412 11.8344 101.259 11.8344ZM101.259 30.5895C97.2727 30.5895 94.5684 27.7446 94.5684 23.7582C94.5684 19.7719 97.2727 16.927 101.259 16.927C105.245 16.927 107.903 19.7661 107.903 23.7582C107.903 27.7504 105.245 30.5895 101.259 30.5895Z" fill="#6F6AF8"/>
<path d="M126.705 21.4226C124.275 21.1007 122.209 20.8256 122.209 19.0812C122.209 17.7524 123.403 16.6051 125.786 16.6051C127.94 16.6051 129.222 17.5651 129.356 18.9407H134.771C134.636 14.9543 131.241 11.8344 125.692 11.8344C120.143 11.8344 116.707 14.8665 116.707 19.4968C116.707 25.0402 121.84 25.6373 125.329 26.0997C127.758 26.4217 129.778 26.65 129.778 28.3885C129.778 29.7641 128.584 30.9114 125.791 30.9114C122.999 30.9114 121.805 29.8987 121.758 28.3885H116.256C116.39 32.609 120.02 35.6821 125.797 35.6821C131.575 35.6821 135.292 32.6558 135.292 28.0665C135.292 22.4236 129.743 21.8324 126.716 21.4226H126.705Z" fill="#6F6AF8"/>
<path d="M151.395 25.7777V26.3748C151.395 29.4479 149.838 30.5952 147.591 30.5952C145.343 30.5952 143.78 29.4011 143.78 26.3748V17.3894H156.851V12.4372H143.78V6.11523H138.324V26.3748C138.324 32.6557 142.088 35.6821 147.591 35.6821C153.093 35.6821 156.851 32.6557 156.851 26.3748V25.7777H151.395Z" fill="#6F6AF8"/>
<path d="M171.579 11.8344C164.379 11.8344 159.333 16.7924 159.333 23.9865C159.333 31.7309 165.111 35.6763 170.613 35.6763C174.19 35.6763 177.263 33.9787 178.638 30.6304V35.0792H183.637V23.9339C183.637 16.6402 178.685 11.8285 171.579 11.8285V11.8344ZM171.532 30.5895C167.546 30.5895 164.841 27.7446 164.841 23.7582C164.841 19.7719 167.546 16.927 171.532 16.927C175.518 16.927 178.182 19.7661 178.182 23.7582C178.182 27.7504 175.524 30.5895 171.532 30.5895Z" fill="#6F6AF8"/>
<path d="M187.214 6.11523V35.085H192.669V6.11523H187.214Z" fill="#6F6AF8"/>
<path d="M208.334 11.8344C201.181 11.8344 196.135 16.8802 196.135 23.7582C196.135 30.6363 201.181 35.6821 208.334 35.6821C215.487 35.6821 220.533 30.6363 220.533 23.7582C220.533 16.8802 215.487 11.8344 208.334 11.8344ZM208.334 30.5895C204.348 30.5895 201.644 27.7446 201.644 23.7582C201.644 19.7719 204.348 16.927 208.334 16.927C212.321 16.927 214.984 19.7661 214.984 23.7582C214.984 27.7504 212.321 30.5895 208.334 30.5895Z" fill="#6F6AF8"/>
<path d="M236.625 25.7777V26.3748C236.625 29.4479 235.062 30.5952 232.814 30.5952C230.566 30.5952 229.009 29.4011 229.009 26.3748V17.3894H242.081V12.4372H229.009V6.11523H223.554V26.3748C223.554 32.6557 227.318 35.6821 232.814 35.6821C238.311 35.6821 242.081 32.6557 242.081 26.3748V25.7777H236.625Z" fill="#6F6AF8"/>
<path d="M258.594 25.7777V26.3748C258.594 29.4479 257.037 30.5952 254.789 30.5952C252.541 30.5952 250.978 29.4011 250.978 26.3748V17.3894H264.049V12.4372H250.978V6.11523H245.522V26.3748C245.522 32.6557 249.286 35.6821 254.789 35.6821C260.291 35.6821 264.049 32.6557 264.049 26.3748V25.7777H258.594Z" fill="#6F6AF8"/>
<path d="M42.6695 36.9933C42.6695 36.9933 42.6519 37.005 42.6402 37.0108L35.692 41.0206C34.6968 41.5942 33.4734 41.5942 32.4783 41.0206L25.53 37.0108C25.53 37.0108 25.5124 37.005 25.5007 36.9933C23.8383 36.0098 23.8383 33.5396 25.5007 32.5562C25.5124 32.5503 25.5183 32.5445 25.53 32.5386L32.4783 28.5289C33.4734 27.9552 34.6968 27.9552 35.692 28.5289L42.6402 32.5386C42.6402 32.5386 42.6578 32.5445 42.6695 32.5562C44.332 33.5396 44.332 36.0098 42.6695 36.9933Z" fill="url(#paint0_linear_49789_3069)"/>
<path d="M31.6529 25.9767C31.6529 25.9767 31.6354 25.9884 31.6236 25.9942L24.6753 30.004C23.6802 30.5776 22.4568 30.5776 21.4617 30.004L14.5134 25.9942C14.5134 25.9942 14.4958 25.9884 14.4841 25.9767C12.8217 24.9932 12.8217 22.523 14.4841 21.5396C14.4958 21.5337 14.5017 21.5279 14.5134 21.522L21.4617 17.5123C22.4568 16.9386 23.6802 16.9386 24.6753 17.5123L31.6236 21.522C31.6236 21.522 31.6412 21.5279 31.6529 21.5396C33.3153 22.523 33.3153 24.9932 31.6529 25.9767Z" fill="url(#paint1_linear_49789_3069)"/>
<path d="M53.6861 25.9767C53.6861 25.9767 53.6686 25.9884 53.6568 25.9942L46.7086 30.004C45.7134 30.5776 44.49 30.5776 43.4949 30.004L36.5466 25.9942C36.5466 25.9942 36.529 25.9884 36.5173 25.9767C34.8549 24.9932 34.8549 22.523 36.5173 21.5396C36.529 21.5337 36.5349 21.5279 36.5466 21.522L43.4949 17.5123C44.49 16.9386 45.7134 16.9386 46.7086 17.5123L53.6568 21.522C53.6568 21.522 53.6744 21.5279 53.6861 21.5396C55.3485 22.523 55.3485 24.9932 53.6861 25.9767Z" fill="#6F6AF8"/>
<path d="M42.6695 14.9601C42.6695 14.9601 42.6519 14.9718 42.6402 14.9776L35.692 18.9874C34.6968 19.5611 33.4734 19.5611 32.4783 18.9874L25.53 14.9776C25.53 14.9776 25.5124 14.9718 25.5007 14.9601C23.8383 13.9767 23.8383 11.5064 25.5007 10.523C25.5124 10.5171 25.5183 10.5113 25.53 10.5054L32.4783 6.49567C33.4734 5.92202 34.6968 5.92202 35.692 6.49567L42.6402 10.5054C42.6402 10.5054 42.6578 10.5113 42.6695 10.523C44.332 11.5064 44.332 13.9767 42.6695 14.9601Z" fill="#6F6AF8"/>
<defs>
<linearGradient id="paint0_linear_49789_3069" x1="24.2598" y1="34.7747" x2="43.9163" y2="34.7747" gradientUnits="userSpaceOnUse">
<stop stop-color="#84F8B2"/>
<stop offset="1" stop-color="#8CDCE2"/>
</linearGradient>
<linearGradient id="paint1_linear_49789_3069" x1="13.2373" y1="23.7581" x2="32.8997" y2="23.7581" gradientUnits="userSpaceOnUse">
<stop stop-color="#84F8B2"/>
<stop offset="1" stop-color="#8CDCE2"/>
</linearGradient>
</defs>
</svg>
